<?xml version="1.0" encoding="UTF-8"?>
<svg xmlns="http://www.w3.org/2000/svg" xmlns:xlink="http://www.w3.org/1999/xlink" width="22727px" height="2500px" viewBox="0 0 23285 2500" version="1.1">
<g id="surface1">
<path style=" stroke:none;fill-rule:nonzero;fill:rgb(90.196078%,90.588235%,90.588235%);fill-opacity:1;" d="M 214.632812 2379.066406 L 214.632812 1965.347656 C 483.28125 2062.175781 767.109375 2110.082031 1052.65625 2106.789062 C 1429.824219 2106.789062 1618.410156 1980.433594 1618.410156 1727.722656 C 1618.410156 1543.847656 1502.195312 1451.910156 1269.761719 1451.910156 L 883.636719 1451.910156 C 379.171875 1451.910156 126.941406 1222.066406 126.941406 762.375 C 126.941406 256.484375 486.195312 3.535156 1204.703125 3.535156 C 1471.113281 2.058594 1736.070312 42.878906 1989.683594 124.46875 L 1989.683594 535.359375 C 1738.628906 441.488281 1472.730469 393.578125 1204.703125 393.917969 C 790.757812 393.917969 583.785156 514.617188 583.785156 756.011719 C 583.785156 939.886719 683.738281 1031.824219 883.636719 1031.824219 L 1269.761719 1031.824219 C 1806.757812 1031.824219 2075.253906 1261.667969 2075.253906 1721.359375 C 2075.253906 2239.980469 1733.917969 2499.292969 1051.242188 2499.292969 C 767.789062 2503.363281 485.46875 2462.789062 214.632812 2379.066406 Z M 214.632812 2379.066406 "/>
<path style=" stroke:none;fill-rule:nonzero;fill:rgb(90.196078%,90.588235%,90.588235%);fill-opacity:1;" d="M 4356.65625 2379.066406 C 4124.589844 2462.929688 3879.214844 2503.90625 3632.492188 2500 C 2747.085938 2500 2304.621094 2071.664062 2305.09375 1214.992188 C 2305.09375 404.527344 2747.558594 -0.707031 3632.492188 -0.707031 C 3879.214844 -4.660156 4124.601562 36.320312 4356.65625 120.226562 L 4356.65625 535.359375 C 4139.03125 441.164062 3904.277344 393.007812 3667.144531 393.917969 C 3074.988281 393.917969 2778.910156 666.902344 2778.910156 1212.871094 C 2778.910156 1805.042969 3074.988281 2101.132812 3667.144531 2101.132812 C 3904.277344 2102.0625 4139.039062 2053.90625 4356.65625 1959.6875 Z M 4356.65625 2379.066406 "/>
<path style=" stroke:none;fill-rule:nonzero;fill:rgb(90.196078%,90.588235%,90.588235%);fill-opacity:1;" d="M 4717.324219 2479.492188 L 4717.324219 16.972656 L 5838.222656 16.972656 C 6341.742188 16.972656 6593.503906 237.152344 6593.503906 677.511719 C 6593.503906 975.484375 6397.613281 1222.066406 6005.828125 1417.257812 L 6783.738281 2483.027344 L 6208.082031 2483.027344 L 5457.753906 1408.769531 L 5457.753906 1196.605469 C 5894.328125 1122.113281 6112.613281 952.617188 6112.613281 688.117188 C 6112.613281 506.601562 6010.304688 415.839844 5805.691406 415.839844 L 5179.828125 415.839844 L 5179.828125 2476.660156 L 4714.496094 2476.660156 Z M 4717.324219 2479.492188 "/>
<path style=" stroke:none;fill-rule:nonzero;fill:rgb(90.196078%,90.588235%,90.588235%);fill-opacity:1;" d="M 8619.609375 16.972656 L 8619.609375 410.183594 L 7384.851562 410.183594 L 7384.851562 1030.410156 L 8559.496094 1030.410156 L 8559.496094 1439.179688 L 7378.488281 1439.179688 L 7378.488281 2086.28125 L 8642.238281 2086.28125 L 8642.238281 2483.027344 L 6932.957031 2483.027344 L 6932.957031 16.972656 L 8621.023438 16.972656 Z M 8619.609375 16.972656 "/>
<path style=" stroke:none;fill-rule:nonzero;fill:rgb(90.196078%,90.588235%,90.588235%);fill-opacity:1;" d="M 10681.074219 16.972656 L 10681.074219 410.183594 L 9449.144531 410.183594 L 9449.144531 1030.410156 L 10624.496094 1030.410156 L 10624.496094 1439.179688 L 9443.488281 1439.179688 L 9443.488281 2086.28125 L 10707.238281 2086.28125 L 10707.238281 2483.027344 L 8995.128906 2483.027344 L 8995.128906 16.972656 Z M 10681.074219 16.972656 "/>
<path style=" stroke:none;fill-rule:nonzero;fill:rgb(90.196078%,90.588235%,90.588235%);fill-opacity:1;" d="M 11059.421875 2483.027344 L 11059.421875 16.972656 L 11516.265625 16.972656 L 12818.207031 1814.003906 L 12818.207031 16.972656 L 13258.078125 16.972656 L 13258.078125 2483.027344 L 12802.648438 2483.027344 L 11500.707031 648.515625 L 11500.707031 2483.027344 Z M 11059.421875 2483.027344 "/>
<path style=" stroke:none;fill-rule:nonzero;fill:rgb(85.098039%,63.921569%,18.039216%);fill-opacity:1;" d="M 14064.984375 2479.492188 L 14064.984375 16.972656 L 15185.886719 16.972656 C 15689.40625 16.972656 15941.164062 237.152344 15941.164062 677.511719 C 15941.164062 975.484375 15745.273438 1222.066406 15353.488281 1417.257812 L 16131.402344 2483.027344 L 15560.695312 2483.027344 L 14810.367188 1408.769531 L 14810.367188 1196.605469 C 15247.410156 1122.113281 15465.933594 952.617188 15465.933594 688.117188 C 15465.933594 506.601562 15363.625 415.839844 15159.011719 415.839844 L 14533.148438 415.839844 L 14533.148438 2476.660156 L 14067.816406 2476.660156 Z M 14064.984375 2479.492188 "/>
<path style=" stroke:none;fill-rule:nonzero;fill:rgb(85.098039%,63.921569%,18.039216%);fill-opacity:1;" d="M 16532.378906 2483.027344 L 16063.511719 2483.027344 L 17110.152344 16.972656 L 17601.652344 16.972656 L 18672.339844 2483.027344 L 18177.304688 2483.027344 L 17894.429688 1810.464844 L 17079.039062 1810.464844 L 17236.035156 1413.71875 L 17731.070312 1413.71875 L 17342.820312 487.976562 Z M 16532.378906 2483.027344 "/>
<path style=" stroke:none;fill-rule:nonzero;fill:rgb(85.098039%,63.921569%,18.039216%);fill-opacity:1;" d="M 18902.179688 2483.027344 L 18902.179688 16.972656 L 19359.023438 16.972656 L 20660.964844 1814.003906 L 20660.964844 16.972656 L 21100.835938 16.972656 L 21100.835938 2483.027344 L 20643.992188 2483.027344 L 19342.050781 648.515625 L 19342.050781 2483.027344 Z M 18902.179688 2483.027344 "/>
<path style=" stroke:none;fill-rule:nonzero;fill:rgb(85.098039%,63.921569%,18.039216%);fill-opacity:1;" d="M 23159.472656 16.972656 L 23159.472656 413.71875 L 22452.28125 413.71875 L 22452.28125 2483.027344 L 21996.144531 2483.027344 L 21996.144531 413.71875 L 21288.949219 413.71875 L 21288.949219 16.972656 L 23160.179688 16.972656 Z M 23159.472656 16.972656 "/>
</g>
</svg>
