<svg id="_3_-_ScreenRant" data-name="3 - ScreenRant" xmlns="http://www.w3.org/2000/svg" viewBox="0 0 325.71 35.35"><defs><style>.cls-1{fill:#e6e7e7;}.cls-2{fill:#d9a32e;}</style></defs><title>sr-logo-full-colored-light</title><path class="cls-1" d="M458,304.07v-5.85a33.8,33.8,0,0,0,11.85,2q8,0,8-5.36,0-3.9-4.93-3.9h-5.46q-10.7,0-10.7-9.75,0-10.73,15.24-10.73a35.6,35.6,0,0,1,11.1,1.71V278a31.58,31.58,0,0,0-11.1-2q-8.78,0-8.78,5.12,0,3.9,4.24,3.9h5.46q11.39,0,11.39,9.75,0,11-14.48,11A38.2,38.2,0,0,1,458,304.07Z" transform="translate(-456.74 -270.43)"/><path class="cls-1" d="M516.57,304.07a28.79,28.79,0,0,1-10.24,1.71q-18.78,0-18.77-18.17,0-17.19,18.77-17.19a28.76,28.76,0,0,1,10.24,1.71V278a24.31,24.31,0,0,0-9.75-2q-12.56,0-12.56,11.58,0,12.56,12.56,12.56a24.3,24.3,0,0,0,9.75-2v5.85Z" transform="translate(-456.74 -270.43)"/><path class="cls-1" d="M521.67,305.49V270.67h15.85q10.68,0,10.68,9.34,0,6.32-8.31,10.46l11,15.07h-8.14l-10.61-15.19v-3q9.26-1.58,9.26-7.19,0-3.85-4.34-3.85h-8.85v29.14h-6.58Z" transform="translate(-456.74 -270.43)"/><path class="cls-1" d="M576.85,270.67v5.56H559.39V285H576v5.78h-16.7v9.15h17.87v5.61H553V270.67h23.87Z" transform="translate(-456.74 -270.43)"/><path class="cls-1" d="M606,270.67v5.56H588.58V285H605.2v5.78H588.5v9.15h17.87v5.61H582.16V270.67H606Z" transform="translate(-456.74 -270.43)"/><path class="cls-1" d="M611.35,305.54V270.67h6.46l18.41,25.41V270.67h6.22v34.87H636l-18.41-25.94v25.94h-6.22Z" transform="translate(-456.74 -270.43)"/><path class="cls-2" d="M653.85,305.49V270.67H669.7q10.68,0,10.68,9.34,0,6.32-8.31,10.46l11,15.07H675l-10.61-15.19v-3q9.27-1.58,9.27-7.19,0-3.85-4.34-3.85h-8.85v29.14h-6.58Z" transform="translate(-456.74 -270.43)"/><path class="cls-2" d="M688.74,305.54h-6.63l14.8-34.87h6.95L719,305.54H712l-4-9.51H696.47l2.22-5.61h7l-5.49-13.09Z" transform="translate(-456.74 -270.43)"/><path class="cls-2" d="M722.25,305.54V270.67h6.46l18.41,25.41V270.67h6.22v34.87h-6.46l-18.41-25.94v25.94h-6.22Z" transform="translate(-456.74 -270.43)"/><path class="cls-2" d="M782.45,270.67v5.61h-10v29.26H766V276.28H756v-5.61h26.46Z" transform="translate(-456.74 -270.43)"/></svg>