<?xml version="1.0" encoding="UTF-8"?>
<svg id="Layer_1" data-name="Layer 1" xmlns="http://www.w3.org/2000/svg" xmlns:xlink="http://www.w3.org/1999/xlink" viewBox="0 0 616.3923 80.7775">
  <a xlink:href="10.1192156862745">
    <path id="fullLogo" d="m94.3112,60.4785h12.0173c1.7089,0,3.3946-1.1427,3.8344-2.6012l6.8515-22.8162h-15.0723l-7.6308,25.4174Z" style="fill: #e8e4e4;"/>
  </a>
  <a xlink:href="10.1192156862745">
    <path id="fullLogo-2" data-name="fullLogo" d="m183.5225,39.4476c-.6767,2.2488-1.5538,5.1615-2.6861,8.9342-.1258.4208-.739.8905-1.4194.8905h-20.2162c-.3054,0-.5643-.1014-.6902-.2712-.0647-.0861-.1295-.2333-.0684-.4385l4.0652-13.5332h-15.1346l-4.4134,14.7022c-.7879,2.6244-.4178,5.1518,1.0432,7.1147,1.7675,2.3783,4.9227,3.7421,8.6557,3.7421h26.8649c7.0457,0,14.2161-4.7896,15.9836-10.6773,2.2842-7.6076,3.6536-12.1578,4.4757-14.8818h-15.1322c-.3225,1.0737-.7525,2.5059-1.3278,4.4182Z" style="fill: #e8e4e4;"/>
  </a>
  <a xlink:href="10.1192156862745">
    <path id="fullLogo-3" data-name="fullLogo" d="m207.7783,60.5035h12.01c1.7101,0,3.3958-1.1427,3.8356-2.6l2.1853-7.2729h.1466l21.219-.0183c7.0421,0,14.2112-4.7902,15.9812-10.6767l1.4646-4.8842h-49.1992l-7.6431,25.4522Z" style="fill: #e8e4e4;"/>
  </a>
  <a xlink:href="10.1192156862745">
    <path id="fullLogo-4" data-name="fullLogo" d="m89.4826,20.1488l-4.4366,10.9375c6.7306,0,45.8193.0043,46.871.0055,1.4341-.2901,2.6825-1.3199,3.0391-2.5114l2.5298-8.4297c-16.7532-.0012-46.976-.0195-48.0033-.0018Z" style="fill: #e8e4e4;"/>
  </a>
  <a xlink:href="10.1192156862745">
    <path id="fullLogo-5" data-name="fullLogo" d="m191.4881,20.1292c-1.3981,0-17.2259.0276-28.6046.0466-6.8978.0115-13.0386,4.3705-15.3256,10.8781h0s53.6205.0043,53.6205.0043l.0098-.0727c.7879-2.625.419-5.1518-1.042-7.1154-1.7688-2.3771-4.9239-3.7409-8.6581-3.7409Z" style="fill: #e8e4e4;"/>
  </a>
  <a xlink:href="10.1192156862745">
    <path id="fullLogo-6" data-name="fullLogo" d="m256.1383,20.1433c-14.0108,0-36.3488-.0177-37.1257-.0055l-3.6414,10.9412c6.3849,0,47.4781.0043,50.4415.0043l.0257-.0861c.7867-2.6226.4117-5.1518-1.053-7.1202-1.7663-2.3734-4.9166-3.7336-8.6471-3.7336Z" style="fill: #e8e4e4;"/>
  </a>
  <path id="fullLogo-7" data-name="fullLogo" d="m576.3506,6.2542c18.8521,0,33.9076,15.2825,33.6278,34.1345h0c-.2799,18.852-15.7895,34.1346-34.6414,34.1346H39.8858c-18.852,0-33.9077-15.2826-33.6278-34.1346h0C6.5379,21.5367,22.0475,6.2542,40.8995,6.2542h535.4511m0-6.2542H40.8995C18.6799,0,.3344,18.0766.0046,40.2959c-.1605,10.8063,3.902,20.9706,11.4391,28.6204,7.5362,7.6489,17.6371,11.8613,28.4422,11.8613h535.4512c22.2196,0,40.5649-18.0766,40.8948-40.2959.1605-10.8064-3.9021-20.9707-11.4391-28.6205-7.5361-7.6487-17.637-11.8611-28.4421-11.8611h0Z" style="fill: #e8e4e4;"/>
  <g id="logoMark">
    <path id="logoMark_CompoundPathItem_" data-name="logoMark &amp;lt;CompoundPathItem&amp;gt;" d="m67.0732,26.2525l-6.7121,8.2763c2.2104,5.9997.9069,13.0019-3.9142,17.823-6.6093,6.6093-17.3237,6.6093-23.9293.0037-6.6093-6.6093-6.6093-17.3237,0-23.9329,4.8174-4.8174,11.8233-6.1246,17.8193-3.9105l8.2836-6.7121c-10.2885-6.4477-24.0247-5.1957-32.973,3.7526-10.4023,10.4023-10.406,27.267,0,37.6729,10.4023,10.4023,27.2707,10.4023,37.6729,0,8.9482-8.9482,10.2003-22.6845,3.7526-32.973Z" style="fill: #007eff;"/>
    <a xlink:href="10.1192156862745">
      <circle id="logoMark_PathItem_" data-name="logoMark &amp;lt;PathItem&amp;gt;" cx="44.4821" cy="40.3878" r="6.5732" style="fill: #e8e4e4;"/>
    </a>
    <a xlink:href="10.1192156862745">
      <polygon id="logoMark_PathItem_-2" data-name="logoMark &amp;lt;PathItem&amp;gt;" points="46.9407 42.8455 42.0241 37.9289 67.9288 16.9444 46.9407 42.8455" style="fill: #e8e4e4;"/>
    </a>
  </g>
  <a xlink:href="59.5952941176471">
    <path id="fullLogo-8" data-name="fullLogo" d="m279.3188,31.093h45.4518c1.4438-.2834,2.702-1.3168,3.0624-2.5182l2.5298-8.426c-20.6512,0-32.3229.0374-39.4534.0629-4.7481.017-8.9499,3.0524-10.4674,7.5515l-1.1231,3.3298Z" style="fill: #007eff;"/>
  </a>
  <a xlink:href="59.5952941176471">
    <path id="fullLogo-9" data-name="fullLogo" d="m383.0787,20.1433c-14.0108,0-36.3488-.0177-37.1257-.0055l-3.6804,10.9412c6.3849,0,47.5171.0043,50.4806.0043l.0257-.0861c.7867-2.6226.4117-5.1518-1.053-7.1202-1.7663-2.3734-4.9166-3.7336-8.6471-3.7336Z" style="fill: #007eff;"/>
  </a>
  <a xlink:href="59.5952941176471">
    <path id="fullLogo-10" data-name="fullLogo" d="m406.4411,31.0527h44.6445c.7476-.2999,1.3278-.8807,1.5196-1.5238l2.8009-9.33c-16.8008.0012-28.8267.0012-45.3697.0012l-3.5953,10.8526Z" style="fill: #007eff;"/>
  </a>
  <a xlink:href="59.5952941176471">
    <path id="fullLogo-11" data-name="fullLogo" d="m469.836,20.2001l-3.9754,10.8526h45.0246c.7476-.2999,1.3278-.8807,1.5196-1.5238l2.8009-9.33c-16.8008.0012-28.8267.0012-45.3697.0012Z" style="fill: #007eff;"/>
  </a>
  <a xlink:href="59.5952941176471">
    <path id="fullLogo-12" data-name="fullLogo" d="m572.633,23.9342c-1.7675-2.3771-4.9239-3.7421-8.6594-3.7433l-34.227-.0104-4.1352,10.8581h48.0672c.7842-2.6208.4129-5.1432-1.0456-7.1044Z" style="fill: #007eff;"/>
  </a>
  <a xlink:href="59.5952941176471">
    <path id="fullLogo-13" data-name="fullLogo" d="m315.1792,35.2559l-36.3622-.1906c-.7024,2.553-.3005,5.0046,1.136,6.9187,1.7688,2.3557,4.913,3.7061,8.6276,3.7061,5.7192,0,21.5415-.025,21.6954.2651.0037.0055.0061.0122.011.0183.1417.1967.1246.2541-.1686,1.2038-.0843.2712-.1918.6236-.331,1.0835-.127.422-.7415.8917-1.4206.8917h-29.2066c-1.7089,0-3.3946,1.1421-3.8344,2.6l-2.6141,8.7119h35.0821c7.0482,0,14.2185-4.7902,15.9848-10.6761l1.1043-3.6762c.7891-2.6226.4153-5.1518-1.0493-7.1202-1.7663-2.374-4.9191-3.736-8.6545-3.736Z" style="fill: #007eff;"/>
  </a>
  <a xlink:href="59.5952941176471">
    <path id="fullLogo-14" data-name="fullLogo" d="m334.7187,60.5035h12.01c1.7101,0,3.3958-1.1427,3.8356-2.6l2.1853-7.2729h.1466l21.219-.0183c7.0421,0,14.2112-4.7902,15.9812-10.6767l1.4646-4.8842h-49.1992l-7.6431,25.4522Z" style="fill: #007eff;"/>
  </a>
  <a xlink:href="59.5952941176471">
    <path id="fullLogo-15" data-name="fullLogo" d="m418.3757,45.6248h22.0643c1.1226,0,2.2329-.761,2.5261-1.7321l2.6165-8.7204-39.0728-.146-7.6773,25.5719,42.4466.0012c1.125,0,2.2329-.761,2.5261-1.7309l2.8791-9.6018h-29.3605l1.0517-3.642Z" style="fill: #007eff;"/>
  </a>
  <a xlink:href="59.5952941176471">
    <path id="fullLogo-16" data-name="fullLogo" d="m478.1753,45.6248h22.0643c1.1226,0,2.2329-.761,2.5261-1.7321l2.6165-8.7204-39.0728-.146-7.6773,25.5719,42.4466.0012c1.125,0,2.2329-.761,2.5261-1.7309l2.8791-9.6018h-29.3605l1.0517-3.642Z" style="fill: #007eff;"/>
  </a>
  <a xlink:href="59.5952941176471">
    <path id="fullLogo-17" data-name="fullLogo" d="m556.2024,38.8716c-.7012,2.3288-1.6344,5.4333-2.8779,9.5712-.127.422-.7402.8917-1.4194.8917h-14.828c-.3054,0-.5631-.1014-.6902-.2718-.0635-.0867-.1283-.2327-.0672-.4379l4.0897-13.6151h-15.1273c-.4605,1.5391-5.145,17.108-7.7054,25.6385h34.4347c7.0482,0,14.2185-4.7884,15.9848-10.6749,2.3075-7.6876,3.6817-12.2494,4.5001-14.9636h-15.1322c-.2895.9626-.667,2.2195-1.1617,3.8618Z" style="fill: #007eff;"/>
  </a>
</svg>